<svg width="288" height="288" viewBox="0 0 288 288" fill="none" xmlns="http://www.w3.org/2000/svg">
<rect width="288" height="288" rx="97.92" fill="url(#paint0_linear_215_701)"/>
<path d="M236.575 142.655C234.047 205.521 168.428 247.68 143.048 247.68C117.669 247.68 49.072 215.577 46.0791 142.655C46.0791 100.139 68.466 46.0798 139.233 46.0798C209.999 46.0798 236.575 100.139 236.575 142.655Z" fill="#F4FEFF"/>
<path d="M169.639 200.273C169.639 207.514 156.986 223.281 141.378 223.281C125.771 223.281 113.118 207.514 113.118 200.273C113.118 193.032 125.771 202.862 141.378 202.862C156.986 202.862 169.639 193.032 169.639 200.273Z" stroke="#6585AB" stroke-width="2.10698"/>
<mask id="path-4-inside-1_215_701" fill="white">
<path d="M152.116 144.675C152.116 137.476 155.034 130.958 159.752 126.24L178.188 144.675H152.116ZM153.96 142.895H173.889L159.798 128.803C156.367 132.766 154.337 137.667 153.96 142.895Z"/>
</mask>
<path d="M152.116 144.675C152.116 137.476 155.034 130.958 159.752 126.24L178.188 144.675H152.116ZM153.96 142.895H173.889L159.798 128.803C156.367 132.766 154.337 137.667 153.96 142.895Z" fill="#6585AB"/>
<path d="M152.116 144.675V157.644H139.148V144.675H152.116ZM159.752 126.24L150.582 117.07L159.753 107.9L168.923 117.07L159.752 126.24ZM178.188 144.675L187.358 135.505L209.496 157.644H178.188V144.675ZM153.96 142.895V155.863H140.025L141.025 141.963L153.96 142.895ZM173.889 142.895L183.059 133.725L205.197 155.863H173.889V142.895ZM159.798 128.803L149.993 120.315L159.114 109.779L168.968 119.633L159.798 128.803ZM139.148 144.675C139.148 133.898 143.532 124.121 150.582 117.07L168.923 135.41C166.537 137.796 165.084 141.054 165.084 144.675H139.148ZM168.923 117.07L187.358 135.505L169.017 153.845L150.582 135.41L168.923 117.07ZM178.188 157.644H152.116V131.707H178.188V157.644ZM153.96 129.926H173.889V155.863H153.96V129.926ZM164.719 152.065L150.627 137.973L168.968 119.633L183.059 133.725L164.719 152.065ZM169.602 137.291C168.003 139.139 167.071 141.389 166.895 143.826L141.025 141.963C141.603 133.945 144.731 126.393 149.993 120.315L169.602 137.291Z" fill="#6585AB" mask="url(#path-4-inside-1_215_701)"/>
<mask id="path-6-inside-2_215_701" fill="white">
<path d="M188.824 171.771L187.996 172.095C184.871 173.316 181.571 173.936 178.186 173.936C163.319 173.936 151.224 161.841 151.224 146.974V146.084H178.794L188.824 171.771ZM153.02 147.864C153.492 161.338 164.599 172.156 178.186 172.156C181.048 172.156 183.844 171.682 186.513 170.746L177.578 147.864H153.02Z"/>
</mask>
<path d="M188.824 171.771L187.996 172.095C184.871 173.316 181.571 173.936 178.186 173.936C163.319 173.936 151.224 161.841 151.224 146.974V146.084H178.794L188.824 171.771ZM153.02 147.864C153.492 161.338 164.599 172.156 178.186 172.156C181.048 172.156 183.844 171.682 186.513 170.746L177.578 147.864H153.02Z" fill="#6585AB"/>
<path d="M188.824 171.771L200.904 167.054L205.62 179.13L193.545 183.849L188.824 171.771ZM187.996 172.095L183.273 160.017L183.275 160.016L187.996 172.095ZM151.224 146.084H138.256V133.115H151.224V146.084ZM178.794 146.084V133.115H187.652L190.874 141.367L178.794 146.084ZM153.02 147.864L140.06 148.318L139.591 134.896H153.02V147.864ZM186.513 170.746L198.593 166.029L203.478 178.538L190.805 182.983L186.513 170.746ZM177.578 147.864V134.896H186.436L189.658 143.147L177.578 147.864ZM193.545 183.849L192.716 184.173L183.275 160.016L184.103 159.692L193.545 183.849ZM192.718 184.172C188.076 185.988 183.172 186.905 178.186 186.905V160.968C179.969 160.968 181.666 160.645 183.273 160.017L192.718 184.172ZM178.186 186.905C156.157 186.905 138.256 169.003 138.256 146.974H164.193C164.193 154.679 170.482 160.968 178.186 160.968V186.905ZM138.256 146.974V146.084H164.193V146.974H138.256ZM151.224 133.115H178.794V159.052H151.224V133.115ZM190.874 141.367L200.904 167.054L176.744 176.488L166.714 150.801L190.874 141.367ZM165.981 147.411C166.209 153.931 171.613 159.187 178.186 159.187V185.124C157.586 185.124 140.774 168.746 140.06 148.318L165.981 147.411ZM178.186 159.187C179.602 159.187 180.947 158.955 182.22 158.508L190.805 182.983C186.742 184.408 182.493 185.124 178.186 185.124V159.187ZM174.433 175.463L165.498 152.581L189.658 143.147L198.593 166.029L174.433 175.463ZM177.578 160.833H153.02V134.896H177.578V160.833Z" fill="#6585AB" mask="url(#path-6-inside-2_215_701)"/>
<mask id="path-8-inside-3_215_701" fill="white">
<path d="M160.877 124.999L161.507 124.37C164.166 121.711 167.279 119.674 170.762 118.314C173.612 117.199 176.608 116.588 179.681 116.488V116.472H180.571H181.462V116.489C195.918 116.96 207.533 128.865 207.533 143.434C207.533 150.636 204.729 157.406 199.636 162.499C196.977 165.157 193.863 167.195 190.381 168.555L189.551 168.879L179.81 143.932L160.877 124.999ZM179.681 118.268C178.344 118.315 177.023 118.467 175.724 118.72L179.681 122.678V118.268ZM179.681 125.196L173.691 119.206C172.921 119.424 172.16 119.679 171.411 119.972L171.41 119.972C171.209 120.051 171.01 120.132 170.812 120.215L179.681 129.086V125.196ZM179.681 131.604L169.094 121.015C168.279 121.432 167.49 121.891 166.728 122.394L179.681 135.346V131.604H179.681ZM179.681 137.863L165.257 123.441C164.618 123.932 164.001 124.455 163.406 125.01L179.681 141.285V137.863ZM181.462 143.267L190.557 166.558C193.478 165.298 196.105 163.512 198.377 161.24C203.133 156.484 205.753 150.16 205.753 143.435C205.753 129.848 194.935 118.74 181.462 118.269L181.462 143.267Z"/>
</mask>
<path d="M160.877 124.999L161.507 124.37C164.166 121.711 167.279 119.674 170.762 118.314C173.612 117.199 176.608 116.588 179.681 116.488V116.472H180.571H181.462V116.489C195.918 116.96 207.533 128.865 207.533 143.434C207.533 150.636 204.729 157.406 199.636 162.499C196.977 165.157 193.863 167.195 190.381 168.555L189.551 168.879L179.81 143.932L160.877 124.999ZM179.681 118.268C178.344 118.315 177.023 118.467 175.724 118.72L179.681 122.678V118.268ZM179.681 125.196L173.691 119.206C172.921 119.424 172.16 119.679 171.411 119.972L171.41 119.972C171.209 120.051 171.01 120.132 170.812 120.215L179.681 129.086V125.196ZM179.681 131.604L169.094 121.015C168.279 121.432 167.49 121.891 166.728 122.394L179.681 135.346V131.604H179.681ZM179.681 137.863L165.257 123.441C164.618 123.932 164.001 124.455 163.406 125.01L179.681 141.285V137.863ZM181.462 143.267L190.557 166.558C193.478 165.298 196.105 163.512 198.377 161.24C203.133 156.484 205.753 150.16 205.753 143.435C205.753 129.848 194.935 118.74 181.462 118.269L181.462 143.267Z" fill="#6585AB"/>
<path d="M160.877 124.999L151.707 134.169L142.537 124.999L151.707 115.829L160.877 124.999ZM161.507 124.37L170.677 133.54L170.677 133.54L161.507 124.37ZM170.762 118.314L175.486 130.391L175.479 130.394L170.762 118.314ZM179.681 116.488H192.65V129.044L180.1 129.45L179.681 116.488ZM179.681 116.472H166.713V103.504H179.681V116.472ZM181.462 116.472V103.504H194.43V116.472H181.462ZM181.462 116.489L181.039 129.45L168.493 129.041V116.489H181.462ZM199.636 162.499L190.466 153.329L190.466 153.328L199.636 162.499ZM190.381 168.555L195.097 180.635L195.097 180.635L190.381 168.555ZM189.551 168.879L194.267 180.959L182.188 185.675L177.471 173.596L189.551 168.879ZM179.81 143.932L188.98 134.762L190.902 136.684L191.89 139.215L179.81 143.932ZM179.681 118.268L179.234 105.308L192.65 104.845V118.268H179.681ZM175.724 118.72L166.554 127.89L149.32 110.657L173.241 105.991L175.724 118.72ZM179.681 122.678H192.65V153.986L170.511 131.848L179.681 122.678ZM179.681 125.196L188.852 116.026L192.65 119.824V125.196H179.681ZM173.691 119.206L170.149 106.73L177.476 104.65L182.862 110.036L173.691 119.206ZM171.411 119.972L176.133 132.05L175.798 132.181L175.456 132.293L171.411 119.972ZM171.41 119.972L166.697 107.89L167.028 107.761L167.365 107.651L171.41 119.972ZM170.812 120.215L161.641 129.384L147.999 115.739L165.785 108.26L170.812 120.215ZM179.681 129.086H192.65V160.399L170.51 138.255L179.681 129.086ZM179.681 131.604V144.573H174.309L170.51 140.774L179.681 131.604ZM169.094 121.015L163.187 109.47L171.591 105.171L178.265 111.846L169.094 121.015ZM166.728 122.394L157.558 131.564L146.313 120.321L159.589 111.567L166.728 122.394ZM179.681 135.346H192.65V166.651L170.512 144.516L179.681 135.346ZM179.681 131.604V118.636H192.65V131.604H179.681ZM179.681 137.863L188.851 128.693L192.65 132.491V137.863H179.681ZM165.257 123.441L157.356 113.158L166.379 106.224L174.427 114.271L165.257 123.441ZM163.406 125.01L154.236 134.18L144.745 124.689L154.557 115.53L163.406 125.01ZM179.681 141.285H192.65V172.593L170.511 150.455L179.681 141.285ZM181.462 143.267L169.382 147.984L168.493 145.709L168.493 143.267L181.462 143.267ZM190.557 166.558L195.693 178.466L183.361 183.785L178.477 171.275L190.557 166.558ZM198.377 161.24L207.547 170.41L207.547 170.41L198.377 161.24ZM181.462 118.269L168.493 118.269L168.493 104.839L181.915 105.308L181.462 118.269ZM151.707 115.829L152.337 115.2L170.677 133.54L170.047 134.169L151.707 115.829ZM152.337 115.2C156.256 111.281 160.883 108.249 166.046 106.233L175.479 130.394C173.675 131.098 172.076 132.141 170.677 133.54L152.337 115.2ZM166.039 106.236C170.276 104.579 174.729 103.673 179.262 103.527L180.1 129.45C178.487 129.502 176.948 129.82 175.486 130.391L166.039 106.236ZM166.713 116.488V116.472H192.65V116.488H166.713ZM179.681 103.504H180.571V129.441H179.681V103.504ZM180.571 103.504H181.462V129.441H180.571V103.504ZM194.43 116.472V116.489H168.493V116.472H194.43ZM181.884 103.527C203.308 104.226 220.502 121.841 220.502 143.434H194.565C194.565 135.889 188.527 129.694 181.039 129.45L181.884 103.527ZM220.502 143.434C220.502 154.075 216.331 164.145 208.806 171.669L190.466 153.328C193.127 150.668 194.565 147.196 194.565 143.434H220.502ZM208.806 171.668C204.888 175.588 200.259 178.62 195.097 180.635L185.664 156.475C187.468 155.77 189.067 154.727 190.466 153.329L208.806 171.668ZM195.097 180.635L194.267 180.959L184.835 156.798L185.665 156.474L195.097 180.635ZM177.471 173.596L167.73 148.649L191.89 139.215L201.631 164.161L177.471 173.596ZM170.64 153.102L151.707 134.169L170.047 115.829L188.98 134.762L170.64 153.102ZM180.128 131.229C179.479 131.252 178.838 131.325 178.206 131.448L173.241 105.991C175.207 105.608 177.209 105.378 179.234 105.308L180.128 131.229ZM184.894 109.55L188.851 113.508L170.511 131.848L166.554 127.89L184.894 109.55ZM166.713 122.678V118.268H192.65V122.678H166.713ZM170.511 134.366L164.521 128.376L182.862 110.036L188.852 116.026L170.511 134.366ZM177.234 131.681C176.849 131.79 176.482 131.913 176.133 132.05L166.688 107.894C167.838 107.444 168.994 107.058 170.149 106.73L177.234 131.681ZM175.456 132.293L175.455 132.294L167.365 107.651L167.366 107.651L175.456 132.293ZM176.123 132.054C176.045 132.084 175.952 132.122 175.839 132.17L165.785 108.26C166.068 108.141 166.374 108.017 166.697 107.89L176.123 132.054ZM179.983 111.046L188.852 119.917L170.51 138.255L161.641 129.384L179.983 111.046ZM166.713 129.086V125.196H192.65V129.086H166.713ZM170.51 140.774L159.923 130.184L178.265 111.846L188.852 122.435L170.51 140.774ZM175 132.56C174.604 132.763 174.226 132.983 173.866 133.221L159.589 111.567C160.754 110.799 161.955 110.1 163.187 109.47L175 132.56ZM175.897 113.223L188.851 126.175L170.512 144.516L157.558 131.564L175.897 113.223ZM166.713 135.346V131.604H192.65V135.346H166.713ZM179.681 144.573H179.681V118.636H179.681V144.573ZM170.512 147.034L156.088 132.612L174.427 114.271L188.851 128.693L170.512 147.034ZM173.159 133.725C172.847 133.964 172.546 134.219 172.256 134.49L154.557 115.53C155.455 114.691 156.389 113.901 157.356 113.158L173.159 133.725ZM172.576 115.84L188.851 132.115L170.511 150.455L154.236 134.18L172.576 115.84ZM166.713 141.285V137.863H192.65V141.285H166.713ZM193.542 138.55L202.637 161.841L178.477 171.275L169.382 147.984L193.542 138.55ZM185.42 154.65C186.822 154.046 188.084 153.193 189.207 152.07L207.547 170.41C204.126 173.831 200.133 176.551 195.693 178.466L185.42 154.65ZM189.207 152.07C191.531 149.746 192.784 146.72 192.784 143.435H218.721C218.721 153.6 214.735 163.222 207.547 170.41L189.207 152.07ZM192.784 143.435C192.784 136.861 187.528 131.457 181.009 131.229L181.915 105.308C202.343 106.022 218.721 122.835 218.721 143.435H192.784ZM194.43 118.269L194.43 143.267L168.493 143.267L168.493 118.269L194.43 118.269Z" fill="#6585AB" mask="url(#path-8-inside-3_215_701)"/>
<mask id="path-10-inside-4_215_701" fill="white">
<path d="M203.449 147.864H197.903V136.001H203.449V147.864ZM201.669 137.781H199.683V146.083H201.669V137.781ZM190.928 132.433H196.475V147.864H190.928V132.433ZM192.709 146.083H194.694V134.213H192.709V146.083ZM183.955 128.521H189.501V147.864H183.955V128.521ZM185.735 146.083H187.721V130.302H185.735V146.083Z"/>
</mask>
<path d="M203.449 147.864H197.903V136.001H203.449V147.864ZM201.669 137.781H199.683V146.083H201.669V137.781ZM190.928 132.433H196.475V147.864H190.928V132.433ZM192.709 146.083H194.694V134.213H192.709V146.083ZM183.955 128.521H189.501V147.864H183.955V128.521ZM185.735 146.083H187.721V130.302H185.735V146.083Z" fill="#6585AB"/>
<path d="M203.449 147.864H216.418V160.833H203.449V147.864ZM197.903 147.864V160.833H184.934V147.864H197.903ZM197.903 136.001H184.934V123.032H197.903V136.001ZM203.449 136.001V123.032H216.418V136.001H203.449ZM201.669 137.781V124.813H214.637V137.781H201.669ZM199.683 137.781H186.715V124.813H199.683V137.781ZM199.683 146.083V159.052H186.715V146.083H199.683ZM201.669 146.083H214.637V159.052H201.669V146.083ZM190.928 132.433H177.96V119.464H190.928V132.433ZM196.475 132.433V119.464H209.443V132.433H196.475ZM196.475 147.864H209.443V160.833H196.475V147.864ZM190.928 147.864V160.833H177.96V147.864H190.928ZM192.709 146.083V159.052H179.741V146.083H192.709ZM194.694 146.083H207.663V159.052H194.694V146.083ZM194.694 134.213V121.245H207.663V134.213H194.694ZM192.709 134.213H179.741V121.245H192.709V134.213ZM183.955 128.521H170.986V115.553H183.955V128.521ZM189.501 128.521V115.553H202.47V128.521H189.501ZM189.501 147.864H202.47V160.833H189.501V147.864ZM183.955 147.864V160.833H170.986V147.864H183.955ZM185.735 146.083V159.052H172.767V146.083H185.735ZM187.721 146.083H200.689V159.052H187.721V146.083ZM187.721 130.302V117.333H200.689V130.302H187.721ZM185.735 130.302H172.767V117.333H185.735V130.302ZM203.449 160.833H197.903V134.896H203.449V160.833ZM184.934 147.864V136.001H210.871V147.864H184.934ZM197.903 123.032H203.449V148.969H197.903V123.032ZM216.418 136.001V147.864H190.481V136.001H216.418ZM201.669 150.75H199.683V124.813H201.669V150.75ZM212.652 137.781V146.083H186.715V137.781H212.652ZM199.683 133.115H201.669V159.052H199.683V133.115ZM188.7 146.083V137.781H214.637V146.083H188.7ZM190.928 119.464H196.475V145.401H190.928V119.464ZM209.443 132.433V147.864H183.507V132.433H209.443ZM196.475 160.833H190.928V134.896H196.475V160.833ZM177.96 147.864V132.433H203.897V147.864H177.96ZM192.709 133.115H194.694V159.052H192.709V133.115ZM181.726 146.083V134.213H207.663V146.083H181.726ZM194.694 147.182H192.709V121.245H194.694V147.182ZM205.677 134.213V146.083H179.741V134.213H205.677ZM183.955 115.553H189.501V141.49H183.955V115.553ZM202.47 128.521V147.864H176.533V128.521H202.47ZM189.501 160.833H183.955V134.896H189.501V160.833ZM170.986 147.864V128.521H196.923V147.864H170.986ZM185.735 133.115H187.721V159.052H185.735V133.115ZM174.752 146.083V130.302H200.689V146.083H174.752ZM187.721 143.27H185.735V117.333H187.721V143.27ZM198.704 130.302V146.083H172.767V130.302H198.704Z" fill="#6585AB" mask="url(#path-10-inside-4_215_701)"/>
<mask id="path-12-inside-5_215_701" fill="white">
<path d="M169.643 159.916C171.278 160.396 171.426 160.913 171.441 161.444C171.461 162.166 171.037 162.781 170.386 162.975C170.292 163.003 170.196 163.023 170.102 163.035C169.716 163.085 169.339 162.966 169.038 162.701C168.719 162.421 168.537 162.017 168.537 161.592H166.756C166.756 162.528 167.159 163.419 167.861 164.038C168.198 164.334 168.588 164.548 169.003 164.679V166.723H170.784V164.71C170.82 164.7 170.857 164.692 170.893 164.682C172.306 164.262 173.263 162.91 173.221 161.394C173.157 159.091 170.968 158.449 170.144 158.207C168.55 157.74 168.4 157.365 168.354 156.846C168.279 156.004 168.803 155.255 169.573 155.106C169.613 155.098 169.652 155.092 169.692 155.087C170.077 155.039 170.452 155.159 170.751 155.424C171.068 155.706 171.249 156.11 171.248 156.532L171.247 156.619L173.028 156.626L173.028 156.538C173.031 155.604 172.631 154.712 171.932 154.092C171.594 153.793 171.202 153.573 170.784 153.441V151.401H169.003V153.415C167.462 153.834 166.432 155.333 166.581 157.004C166.742 158.821 168.148 159.477 169.643 159.916Z"/>
</mask>
<path d="M169.643 159.916C171.278 160.396 171.426 160.913 171.441 161.444C171.461 162.166 171.037 162.781 170.386 162.975C170.292 163.003 170.196 163.023 170.102 163.035C169.716 163.085 169.339 162.966 169.038 162.701C168.719 162.421 168.537 162.017 168.537 161.592H166.756C166.756 162.528 167.159 163.419 167.861 164.038C168.198 164.334 168.588 164.548 169.003 164.679V166.723H170.784V164.71C170.82 164.7 170.857 164.692 170.893 164.682C172.306 164.262 173.263 162.91 173.221 161.394C173.157 159.091 170.968 158.449 170.144 158.207C168.55 157.74 168.4 157.365 168.354 156.846C168.279 156.004 168.803 155.255 169.573 155.106C169.613 155.098 169.652 155.092 169.692 155.087C170.077 155.039 170.452 155.159 170.751 155.424C171.068 155.706 171.249 156.11 171.248 156.532L171.247 156.619L173.028 156.626L173.028 156.538C173.031 155.604 172.631 154.712 171.932 154.092C171.594 153.793 171.202 153.573 170.784 153.441V151.401H169.003V153.415C167.462 153.834 166.432 155.333 166.581 157.004C166.742 158.821 168.148 159.477 169.643 159.916Z" fill="#6585AB"/>
<path d="M169.643 159.916L165.99 172.359L165.992 172.36L169.643 159.916ZM171.441 161.444L158.478 161.805L158.478 161.805L171.441 161.444ZM170.386 162.975L166.69 150.544L166.689 150.545L170.386 162.975ZM170.102 163.035L171.75 175.899L171.759 175.898L170.102 163.035ZM169.038 162.701L177.608 152.968L177.605 152.965L169.038 162.701ZM168.537 161.592H181.505V148.624H168.537V161.592ZM166.756 161.592V148.624H153.787V161.592H166.756ZM167.861 164.038L176.43 154.303L176.43 154.303L167.861 164.038ZM169.003 164.679H181.971V155.171L172.903 152.311L169.003 164.679ZM169.003 166.723H156.035V179.691H169.003V166.723ZM170.784 166.723V179.691H183.752V166.723H170.784ZM170.784 164.71L167.48 152.169L157.815 154.715V164.71H170.784ZM170.893 164.682L174.569 177.118L174.579 177.116L174.588 177.113L170.893 164.682ZM173.221 161.394L160.257 161.755L160.258 161.757L173.221 161.394ZM170.144 158.207L173.796 145.764L173.795 145.764L170.144 158.207ZM168.354 156.846L181.272 155.698L181.271 155.693L168.354 156.846ZM169.573 155.106L172.044 167.837L172.058 167.834L172.073 167.831L169.573 155.106ZM169.692 155.087L171.238 167.963L171.263 167.96L171.289 167.957L169.692 155.087ZM170.751 155.424L162.143 165.125L162.144 165.125L170.751 155.424ZM171.248 156.532L184.216 156.585L184.216 156.578L184.216 156.571L171.248 156.532ZM171.247 156.619L158.279 156.566L158.226 169.534L171.194 169.587L171.247 156.619ZM173.028 156.626L172.975 169.595L185.944 169.648L185.996 156.678L173.028 156.626ZM173.028 156.538L185.997 156.591L185.997 156.583L185.997 156.576L173.028 156.538ZM171.932 154.092L163.326 163.793L163.328 163.795L171.932 154.092ZM170.784 153.441H157.815V162.952L166.887 165.81L170.784 153.441ZM170.784 151.401H183.752V138.432H170.784V151.401ZM169.003 151.401V138.432H156.035V151.401H169.003ZM169.003 153.415L172.404 165.929L181.971 163.33V153.415H169.003ZM166.581 157.004L179.498 155.855L179.498 155.853L166.581 157.004ZM165.992 172.36C165.893 172.331 165.408 172.185 164.729 171.84C164.046 171.492 162.907 170.811 161.757 169.603C160.508 168.291 159.573 166.702 159.025 164.978C158.529 163.418 158.487 162.152 158.478 161.805L184.405 161.084C184.358 159.393 183.974 155.323 180.542 151.719C177.914 148.958 174.791 147.911 173.293 147.472L165.992 172.36ZM158.478 161.805C158.349 157.175 161.23 152.167 166.69 150.544L174.081 175.406C180.844 173.395 184.574 167.157 184.405 161.083L158.478 161.805ZM166.689 150.545C167.239 150.381 167.826 150.253 168.446 150.173L171.759 175.898C172.567 175.794 173.344 175.625 174.082 175.406L166.689 150.545ZM168.454 150.172C171.9 149.731 175.214 150.861 177.608 152.968L160.468 172.435C163.463 175.072 167.532 176.439 171.75 175.899L168.454 150.172ZM177.605 152.965C180.083 155.146 181.505 158.289 181.505 161.592H155.568C155.568 165.745 157.355 169.695 160.471 172.437L177.605 152.965ZM168.537 148.624H166.756V174.561H168.537V148.624ZM153.787 161.592C153.787 166.257 155.795 170.693 159.293 173.773L176.43 154.303C178.523 156.145 179.724 158.799 179.724 161.592H153.787ZM159.293 173.772C161.034 175.305 163.029 176.393 165.103 177.047L172.903 152.311C174.147 152.703 175.362 153.363 176.43 154.303L159.293 173.772ZM156.035 164.679V166.723H181.971V164.679H156.035ZM169.003 179.691H170.784V153.754H169.003V179.691ZM183.752 166.723V164.71H157.815V166.723H183.752ZM174.087 177.25C173.985 177.277 173.907 177.296 173.879 177.303C173.864 177.307 173.853 177.309 173.857 177.309C173.858 177.308 173.858 177.308 173.86 177.308C173.862 177.307 173.864 177.307 173.867 177.306C173.872 177.305 173.88 177.303 173.89 177.301C173.925 177.292 174.012 177.271 174.121 177.243C174.232 177.214 174.386 177.172 174.569 177.118L167.218 152.245C167.383 152.196 167.519 152.16 167.612 152.136C167.702 152.113 167.77 152.096 167.787 152.092C167.795 152.09 167.803 152.088 167.793 152.09C167.787 152.092 167.767 152.097 167.743 152.102C167.697 152.114 167.6 152.138 167.48 152.169L174.087 177.25ZM174.588 177.113C181.857 174.952 186.384 168.18 186.184 161.032L160.258 161.757C160.142 157.64 162.755 153.571 167.199 152.251L174.588 177.113ZM186.184 161.034C186.017 155.039 182.777 150.854 179.595 148.54C176.917 146.592 174.15 145.868 173.796 145.764L166.492 170.651C166.962 170.789 165.702 170.506 164.34 169.516C163.543 168.936 162.495 167.976 161.638 166.512C160.74 164.979 160.301 163.314 160.257 161.755L186.184 161.034ZM173.795 145.764C173.744 145.748 174.067 145.837 174.582 146.072C175.077 146.298 176.151 146.838 177.319 147.884C178.636 149.063 179.769 150.613 180.497 152.463C181.139 154.096 181.25 155.453 181.272 155.698L155.437 157.994C155.587 159.682 156.225 163.812 160.019 167.208C162.566 169.488 165.436 170.341 166.493 170.651L173.795 145.764ZM181.271 155.693C181.715 160.669 178.563 166.572 172.044 167.837L167.102 142.375C159.044 143.939 154.843 151.339 155.437 157.998L181.271 155.693ZM172.073 167.831C171.794 167.886 171.515 167.93 171.238 167.963L168.147 142.211C167.789 142.254 167.431 142.31 167.073 142.381L172.073 167.831ZM171.289 167.957C167.83 168.386 164.522 167.235 162.143 165.125L179.358 145.724C176.382 143.084 172.324 141.693 168.096 142.217L171.289 167.957ZM162.144 165.125C159.688 162.946 158.27 159.808 158.279 156.494L184.216 156.571C184.228 152.412 182.448 148.465 179.357 145.723L162.144 165.125ZM158.28 156.48L158.279 156.566L184.216 156.672L184.216 156.585L158.28 156.48ZM171.194 169.587L172.975 169.595L173.081 143.658L171.301 143.651L171.194 169.587ZM185.996 156.678L185.997 156.591L160.06 156.486L160.06 156.574L185.996 156.678ZM185.997 156.576C186.01 151.916 184.019 147.477 180.536 144.389L163.328 163.795C161.244 161.948 160.052 159.293 160.06 156.501L185.997 156.576ZM180.538 144.391C178.827 142.873 176.827 141.748 174.68 141.072L166.887 165.81C165.577 165.397 164.362 164.713 163.326 163.793L180.538 144.391ZM183.752 153.441V151.401H157.815V153.441H183.752ZM170.784 138.432H169.003V164.369H170.784V138.432ZM156.035 151.401V153.415H181.971V151.401H156.035ZM165.603 140.9C157.733 143.038 152.981 150.501 153.664 158.156L179.498 155.853C179.882 160.165 177.19 164.629 172.404 165.929L165.603 140.9ZM153.663 158.154C154.074 162.765 156.333 166.566 159.519 169.11C162.141 171.204 164.909 172.042 165.99 172.359L173.295 147.472C172.882 147.351 174.2 147.641 175.705 148.843C176.578 149.541 177.531 150.55 178.284 151.921C179.042 153.301 179.393 154.678 179.498 155.855L153.663 158.154Z" fill="#6585AB" mask="url(#path-12-inside-5_215_701)"/>
<path d="M130.7 144.196C130.7 136.997 127.782 130.479 123.064 125.761L104.629 144.196H130.7ZM128.856 142.415H108.928L123.019 128.324C126.45 132.287 128.48 137.188 128.856 142.415Z" fill="#6585AB"/>
<path d="M93.9863 171.29L94.815 171.614C97.9396 172.836 101.24 173.455 104.624 173.455C119.491 173.455 131.586 161.36 131.586 146.493V145.603H104.016L93.9863 171.29ZM129.79 147.384C129.319 160.857 118.211 171.675 104.624 171.675C101.763 171.675 98.9661 171.201 96.2979 170.265L105.233 147.384H129.79Z" fill="#6585AB"/>
<path d="M121.94 124.52L121.31 123.89C118.652 121.232 115.538 119.194 112.055 117.834C109.205 116.72 106.209 116.108 103.136 116.009V115.993H102.246H101.356V116.009C86.8995 116.481 75.2842 128.386 75.2842 142.955C75.2842 150.156 78.0888 156.927 83.1813 162.019C85.8399 164.678 88.954 166.715 92.4368 168.075L93.2661 168.399L103.007 143.453L121.94 124.52ZM103.136 117.789C104.473 117.835 105.795 117.987 107.094 118.24L103.136 122.198V117.789ZM103.136 124.716L109.126 118.726C109.896 118.945 110.657 119.199 111.407 119.493L111.407 119.493C111.608 119.571 111.807 119.652 112.005 119.736L103.136 128.606V124.716ZM103.136 131.125L113.724 120.536C114.538 120.952 115.327 121.412 116.09 121.914L103.136 134.866V131.125H103.136ZM103.136 137.384L117.56 122.962C118.199 123.453 118.817 123.976 119.411 124.531L103.136 140.806V137.384ZM101.355 142.787L92.2607 166.079C89.3398 164.819 86.7122 163.032 84.4404 160.761C79.6842 156.004 77.0648 149.681 77.0648 142.955C77.0648 129.368 87.8819 118.26 101.356 117.789L101.355 142.787Z" fill="#6585AB"/>
<path d="M79.3613 147.385H84.9079V135.521H79.3613V147.385ZM81.1419 137.302H83.1273V145.604H81.1419V137.302ZM91.8821 131.953H86.3356V147.385H91.8821V131.953ZM90.1015 145.604H88.1162V133.734H90.1015V145.604ZM98.856 128.042H93.3094V147.385H98.856V128.042ZM97.0754 145.604H95.09V129.822H97.0754V145.604Z" fill="#6585AB"/>
<path d="M112.667 159.436C114.302 159.916 114.451 160.433 114.466 160.965C114.486 161.687 114.062 162.302 113.41 162.495C113.316 162.523 113.221 162.544 113.127 162.556C112.74 162.605 112.363 162.487 112.062 162.222C111.744 161.941 111.561 161.537 111.561 161.113H109.78C109.78 162.048 110.183 162.94 110.886 163.558C111.222 163.854 111.612 164.069 112.027 164.2V166.243H113.808V164.23C113.845 164.221 113.882 164.213 113.918 164.202C115.331 163.782 116.288 162.431 116.245 160.915C116.181 158.612 113.992 157.97 113.168 157.728C111.574 157.26 111.425 156.885 111.379 156.366C111.303 155.524 111.828 154.776 112.597 154.626C112.637 154.618 112.677 154.612 112.717 154.607C113.102 154.56 113.476 154.68 113.775 154.945C114.092 155.226 114.273 155.63 114.272 156.053L114.272 156.139L116.052 156.147L116.053 156.059C116.056 155.125 115.656 154.233 114.956 153.613C114.619 153.313 114.226 153.093 113.808 152.961V150.921H112.027V152.935C110.486 153.354 109.456 154.853 109.605 156.525C109.767 158.341 111.172 158.998 112.667 159.436Z" fill="#6585AB"/>
<defs>
<linearGradient id="paint0_linear_215_701" x1="144" y1="0" x2="144" y2="288" gradientUnits="userSpaceOnUse">
<stop stop-color="#225EA5"/>
<stop offset="1" stop-color="#00244E"/>
</linearGradient>
</defs>
</svg>
