<svg width="19" height="22" viewBox="0 0 19 22" fill="none" xmlns="http://www.w3.org/2000/svg">
<path d="M9.26027 10.789C12.0509 10.789 14.3131 8.5268 14.3131 5.7362C14.3131 2.94559 12.0509 0.68335 9.26027 0.68335C6.46967 0.68335 4.20743 2.94559 4.20743 5.7362C4.20743 8.5268 6.46967 10.789 9.26027 10.789Z" fill="url(#paint0_linear_263_1337)"/>
<path d="M9.26088 13.3154C4.19789 13.3154 0.0747681 16.7109 0.0747681 20.8947C0.0747681 21.1777 0.297093 21.4 0.580053 21.4H17.9417C18.2246 21.4 18.447 21.1777 18.447 20.8947C18.447 16.7109 14.3238 13.3154 9.26088 13.3154Z" fill="url(#paint1_linear_263_1337)"/>
<defs>
<linearGradient id="paint0_linear_263_1337" x1="9.26027" y1="0.68335" x2="9.26027" y2="10.789" gradientUnits="userSpaceOnUse">
<stop stop-color="#225EA5"/>
<stop offset="1" stop-color="#00244E"/>
</linearGradient>
<linearGradient id="paint1_linear_263_1337" x1="9.26086" y1="13.3154" x2="9.26086" y2="21.4" gradientUnits="userSpaceOnUse">
<stop stop-color="#225EA5"/>
<stop offset="1" stop-color="#00244E"/>
</linearGradient>
</defs>
</svg>
