<svg width="18" height="17" viewBox="0 0 18 17" fill="none" xmlns="http://www.w3.org/2000/svg">
<path d="M12.1925 16.9082H9.1813C8.73755 16.9082 7.77081 16.7735 7.25574 16.2585L4.85471 14.4042L5.58373 13.4612L8.04023 15.363C8.23833 15.5532 8.73755 15.7117 9.1813 15.7117H12.1925C12.9056 15.7117 13.6743 15.1412 13.8328 14.4993L15.7504 8.67508C15.8772 8.32642 15.8534 8.00946 15.687 7.77966C15.5127 7.53401 15.1957 7.39138 14.8074 7.39138H11.6378C11.2257 7.39138 10.8454 7.21704 10.5839 6.91592C10.3145 6.60688 10.1956 6.19483 10.259 5.76692L10.6552 3.22328C10.7503 2.77953 10.4492 2.28032 10.0213 2.13768C9.63298 1.99505 9.13376 2.20107 8.95943 2.45465L5.71053 7.28835L4.72794 6.63065L7.97684 1.79694C8.47606 1.05208 9.56958 0.695493 10.4254 1.02038C11.4159 1.34527 12.0498 2.4388 11.828 3.45308L11.4397 5.94918C11.4318 6.00465 11.4318 6.08389 11.4872 6.14728C11.5268 6.1869 11.5823 6.21067 11.6457 6.21067H14.8153C15.5919 6.21067 16.2655 6.53556 16.6617 7.09818C17.0499 7.64495 17.1292 8.36604 16.8756 9.06336L14.9818 14.8321C14.6886 15.9811 13.4682 16.9082 12.1925 16.9082Z" fill="url(#paint0_linear_263_1380)"/>
<path d="M3.55577 16.0365H2.76336C1.2974 16.0365 0.584229 15.3471 0.584229 13.9366V6.17093C0.584229 4.76044 1.2974 4.07104 2.76336 4.07104H3.55577C5.02173 4.07104 5.7349 4.76044 5.7349 6.17093V13.9366C5.7349 15.3471 5.02173 16.0365 3.55577 16.0365ZM2.76336 5.25966C1.89963 5.25966 1.77285 5.46569 1.77285 6.17093V13.9366C1.77285 14.6418 1.89963 14.8478 2.76336 14.8478H3.55577C4.4195 14.8478 4.54628 14.6418 4.54628 13.9366V6.17093C4.54628 5.46569 4.4195 5.25966 3.55577 5.25966H2.76336Z" fill="url(#paint1_linear_263_1380)"/>
<defs>
<linearGradient id="paint0_linear_263_1380" x1="10.8749" y1="0.899902" x2="10.8749" y2="16.9082" gradientUnits="userSpaceOnUse">
<stop stop-color="#225EA5"/>
<stop offset="1" stop-color="#00244E"/>
</linearGradient>
<linearGradient id="paint1_linear_263_1380" x1="3.15957" y1="4.07104" x2="3.15957" y2="16.0365" gradientUnits="userSpaceOnUse">
<stop stop-color="#225EA5"/>
<stop offset="1" stop-color="#00244E"/>
</linearGradient>
</defs>
</svg>
