<svg width="18" height="17" viewBox="0 0 18 17" fill="none" xmlns="http://www.w3.org/2000/svg">
<path d="M12.325 0.841764H9.31387C8.87012 0.841764 7.90338 0.976475 7.38831 1.49154L4.98728 3.34578L5.7163 4.28875L8.1728 2.38697C8.3709 2.19679 8.87012 2.03831 9.31387 2.03831H12.325C13.0382 2.03831 13.8068 2.60884 13.9653 3.2507L15.883 9.07492C16.0097 9.42358 15.986 9.74054 15.8196 9.97034C15.6452 10.216 15.3283 10.3586 14.94 10.3586H11.7703C11.3583 10.3586 10.9779 10.533 10.7164 10.8341C10.447 11.1431 10.3282 11.5552 10.3916 11.9831L10.7878 14.5267C10.8828 14.9705 10.5817 15.4697 10.1538 15.6123C9.76555 15.755 9.26633 15.5489 9.092 15.2954L5.84309 10.4616L4.8605 11.1193L8.10941 15.9531C8.60863 16.6979 9.70215 17.0545 10.558 16.7296C11.5485 16.4047 12.1824 15.3112 11.9605 14.2969L11.5722 11.8008C11.5643 11.7454 11.5643 11.6661 11.6198 11.6027C11.6594 11.5631 11.7149 11.5393 11.7783 11.5393H14.9479C15.7245 11.5393 16.398 11.2144 16.7942 10.6518C17.1825 10.1051 17.2618 9.38396 17.0082 8.68664L15.1143 2.91788C14.8211 1.76889 13.6008 0.841764 12.325 0.841764Z" fill="url(#paint0_linear_263_1376)"/>
<path d="M3.68834 1.71354H2.89593C1.42997 1.71354 0.716797 2.40294 0.716797 3.81344V11.5791C0.716797 12.9896 1.42997 13.679 2.89593 13.679H3.68834C5.1543 13.679 5.86747 12.9896 5.86747 11.5791V3.81344C5.86747 2.40294 5.1543 1.71354 3.68834 1.71354ZM2.89593 12.4903C2.0322 12.4903 1.90541 12.2843 1.90541 11.5791V3.81344C1.90541 3.10819 2.0322 2.90216 2.89593 2.90216H3.68834C4.55207 2.90216 4.67885 3.10819 4.67885 3.81344V11.5791C4.67885 12.2843 4.55207 12.4903 3.68834 12.4903H2.89593Z" fill="url(#paint1_linear_263_1376)"/>
<defs>
<linearGradient id="paint0_linear_263_1376" x1="11.0075" y1="16.8501" x2="11.0075" y2="0.841764" gradientUnits="userSpaceOnUse">
<stop stop-color="#225EA5"/>
<stop offset="1" stop-color="#00244E"/>
</linearGradient>
<linearGradient id="paint1_linear_263_1376" x1="3.29213" y1="13.679" x2="3.29213" y2="1.71354" gradientUnits="userSpaceOnUse">
<stop stop-color="#225EA5"/>
<stop offset="1" stop-color="#00244E"/>
</linearGradient>
</defs>
</svg>
